<?xml version="1.0" standalone="no"?><!DOCTYPE svg PUBLIC "-//W3C//DTD SVG 1.1//EN" "http://www.w3.org/Graphics/SVG/1.1/DTD/svg11.dtd"><svg t="1699466884425" class="icon" viewBox="0 0 1024 1024" version="1.1" xmlns="http://www.w3.org/2000/svg" p-id="4112" xmlns:xlink="http://www.w3.org/1999/xlink" width="256" height="256"><path d="M960 0H64A64 64 0 0 0 0 64v896a64 64 0 0 0 64 64h896a64 64 0 0 0 64-64V64a64 64 0 0 0-64-64z m-63.6 896H128v-192h0.4v-192H128v-192h0.4V128h768z" opacity=".4" p-id="4113" fill="#2c2c2c"></path><path d="M512 512v-192h-191.8V128.2h-192v192H320V512H128.4v192h192v-192z m0 192h-191.6v192h192v-192H704v-192h-192z m192.2 192.2h192v-192h-192z m0.2-576.2v192h192v-192z m-192-192v192h192V128z" p-id="4114" fill="#2c2c2c"></path></svg>