<?xml version="1.0" standalone="no"?><!DOCTYPE svg PUBLIC "-//W3C//DTD SVG 1.1//EN" "http://www.w3.org/Graphics/SVG/1.1/DTD/svg11.dtd"><svg t="1694414380968" class="icon" viewBox="0 0 1024 1024" version="1.1" xmlns="http://www.w3.org/2000/svg" p-id="10059" xmlns:xlink="http://www.w3.org/1999/xlink" width="200" height="200"><path d="M829.738667 228.053333A139.52 139.52 0 0 0 695.04 128a140.501333 140.501333 0 0 0-139.818667 128h-86.4a140.672 140.672 0 0 0-140.117333-128 139.434667 139.434667 0 0 0-134.442667 100.053333l-107.136 357.034667A43.818667 43.818667 0 0 0 85.333333 597.333333v42.666667a213.589333 213.589333 0 0 0 213.376 213.333333 213.461333 213.461333 0 0 0 195.242667-128h36.096a213.461333 213.461333 0 0 0 195.242667 128A213.589333 213.589333 0 0 0 938.666667 639.957333V597.333333c0-4.181333-0.64-8.277333-1.792-12.245333l-107.136-357.034667zM298.709333 768A128.213333 128.213333 0 0 1 170.666667 640c0-3.242667 0.725333-6.272 0.938666-9.472A127.786667 127.786667 0 0 1 298.666667 512a128 128 0 0 1 128 128v0.384A128.170667 128.170667 0 0 1 298.709333 768z m426.581334 0A128.170667 128.170667 0 0 1 597.333333 640.384V640a128 128 0 0 1 256-0.042667A128.213333 128.213333 0 0 1 725.290667 768z" p-id="10060" fill="#13227a"></path></svg>