<?xml version="1.0" standalone="no"?><!DOCTYPE svg PUBLIC "-//W3C//DTD SVG 1.1//EN" "http://www.w3.org/Graphics/SVG/1.1/DTD/svg11.dtd"><svg t="1694072091904" class="icon" viewBox="0 0 1024 1024" version="1.1" xmlns="http://www.w3.org/2000/svg" p-id="8631" xmlns:xlink="http://www.w3.org/1999/xlink" width="200" height="200"><path d="M514.4576 945.2544c-281.6 0-502.272-124.3136-502.272-282.9312 0-158.72 220.5696-283.0336 502.272-283.0336s502.272 124.3136 502.272 283.0336c0 158.6176-220.5696 282.9312-502.272 282.9312z m0-526.4384c-255.0784 0-462.6432 109.1584-462.6432 243.4048s207.5648 243.4048 462.6432 243.4048 462.6432-109.1584 462.6432-243.4048c0.1024-134.144-207.4624-243.4048-462.6432-243.4048z" fill="#2c2c2c" p-id="8632"></path><path d="M479.1296 971.3664c3.3792 0 6.7584-0.1024 10.0352-0.2048V1024l84.7872-58.7776 70.5536-48.8448-73.6256-50.9952-81.7152-56.6272V870.4c-1.6384 0-3.1744 0.1024-4.8128 0.1024-227.9424 0-416.6656-102.1952-449.8432-235.52-6.7584 19.0464-10.4448 38.7072-10.4448 58.9824 0.1024 153.1904 203.776 277.4016 455.0656 277.4016z" fill="#2c2c2c" p-id="8633"></path><path d="M315.2896 372.736l204.288-120.2176c3.072-1.7408 6.8608-1.7408 9.8304 0L729.7024 372.736c6.2464 3.7888 6.2464 12.9024-0.1024 16.5888L529.408 506.9824c-2.9696 1.7408-6.656 1.7408-9.728 0L315.392 389.4272a9.69728 9.69728 0 0 1-0.1024-16.6912zM301.3632 431.0016l-0.9216 220.7744c0 3.4816 1.8432 6.7584 4.9152 8.4992l192.7168 111.104a9.74848 9.74848 0 0 0 14.6432-8.3968l0.1024-222.3104c0-3.4816-1.8432-6.7584-4.9152-8.4992l-192-109.568a9.73824 9.73824 0 0 0-14.5408 8.3968zM531.2512 542.4128v220.3648c0 7.4752 8.0896 12.1856 14.5408 8.4992l192.9216-110.1824c3.072-1.7408 4.9152-5.0176 4.9152-8.4992l-0.6144-227.6352c0-7.5776-8.2944-12.288-14.848-8.2944L535.8592 534.1184c-2.8672 1.7408-4.608 4.9152-4.608 8.2944z" fill="#2c2c2c" p-id="8634"></path><path d="M514.4576 649.1136c-281.6 0-502.272-124.3136-502.272-283.0336S232.7552 83.0464 514.4576 83.0464s502.272 124.3136 502.272 283.0336-220.5696 283.0336-502.272 283.0336z m0-526.4384c-255.0784 0-462.6432 109.1584-462.6432 243.4048s207.5648 243.4048 462.6432 243.4048 462.6432-109.1584 462.6432-243.4048c0.1024-134.2464-207.4624-243.4048-462.6432-243.4048z" fill="#2c2c2c" p-id="8635"></path><path d="M552.0384 52.6336c-3.3792 0-6.7584 0.1024-10.0352 0.2048V0l-84.7872 58.7776-70.5536 48.8448 73.6256 50.9952 81.7152 56.6272V153.6c1.6384 0 3.1744-0.1024 4.8128-0.1024 227.9424 0 416.6656 102.1952 449.8432 235.52 6.7584-19.0464 10.4448-38.7072 10.4448-58.9824-0.1024-153.1904-203.776-277.4016-455.0656-277.4016z" fill="#2c2c2c" p-id="8636"></path></svg>