<?xml version="1.0" standalone="no"?><!DOCTYPE svg PUBLIC "-//W3C//DTD SVG 1.1//EN" "http://www.w3.org/Graphics/SVG/1.1/DTD/svg11.dtd"><svg t="1694071959923" class="icon" viewBox="0 0 1024 1024" version="1.1" xmlns="http://www.w3.org/2000/svg" p-id="4551" xmlns:xlink="http://www.w3.org/1999/xlink" width="200" height="200"><path d="M512 183.466667c44.8 0 87.466667 8.533333 128 25.6 40.533333 17.066667 74.666667 40.533333 104.533333 70.4 29.866667 29.866667 53.333333 64 70.4 104.533333s25.6 83.2 25.6 128-8.533333 87.466667-25.6 128-40.533333 74.666667-70.4 104.533333c-29.866667 29.866667-64 53.333333-104.533333 70.4-40.533333 17.066667-83.2 25.6-128 25.6s-87.466667-8.533333-128-25.6c-40.533333-17.066667-74.666667-40.533333-104.533333-70.4-29.866667-29.866667-53.333333-64-70.4-104.533333-17.066667-40.533333-25.6-83.2-25.6-128s8.533333-87.466667 25.6-128c17.066667-40.533333 40.533333-74.666667 70.4-104.533333 29.866667-29.866667 64-53.333333 104.533333-70.4 40.533333-17.066667 83.2-25.6 128-25.6z m145.066667 307.2l-125.866667-155.733334c-4.266667-6.4-10.666667-8.533333-19.2-8.533333s-12.8 2.133333-19.2 8.533333l-125.866667 155.733334c-4.266667 6.4-6.4 10.666667-4.266666 14.933333 2.133333 4.266667 6.4 6.4 14.933333 6.4h78.933333v155.733333c0 4.266667 2.133333 6.4 4.266667 10.666667s6.4 4.266667 10.666667 4.266667h85.333333c4.266667 0 6.4-2.133333 10.666667-4.266667 2.133333-2.133333 4.266667-6.4 4.266666-10.666667v-155.733333h78.933334c8.533333 0 12.8-2.133333 14.933333-6.4-2.133333-4.266667-4.266667-10.666667-8.533333-14.933333z" p-id="4552" fill="#2c2c2c"></path></svg>