<?xml version="1.0" standalone="no"?><!DOCTYPE svg PUBLIC "-//W3C//DTD SVG 1.1//EN" "http://www.w3.org/Graphics/SVG/1.1/DTD/svg11.dtd"><svg t="1694073606658" class="icon" viewBox="0 0 1024 1024" version="1.1" xmlns="http://www.w3.org/2000/svg" p-id="4327" xmlns:xlink="http://www.w3.org/1999/xlink" width="200" height="200"><path d="M512 185.6c12.8 0 25.6 0 42.666667 2.133333l21.333333 87.466667h2.133333c19.2 4.266667 36.266667 12.8 53.333334 21.333333l2.133333 2.133334 76.8-44.8c23.466667 19.2 42.666667 38.4 59.733333 59.733333l-44.8 76.8 2.133334 2.133333c8.533333 17.066667 17.066667 34.133333 21.333333 53.333334v4.266666l87.466667 21.333334c2.133333 17.066667 2.133333 29.866667 2.133333 40.533333 0 12.8 0 27.733333-2.133333 42.666667l-87.466667 21.333333v4.266667c-6.4 19.2-12.8 36.266667-21.333333 53.333333l-2.133334 2.133333 44.8 76.8c-19.2 23.466667-38.4 42.666667-59.733333 59.733334l-76.8-46.933334-2.133333 2.133334c-17.066667 8.533333-34.133333 17.066667-53.333334 21.333333l-2.133333 2.133333-21.333333 85.333334c-17.066667 2.133333-29.866667 2.133333-42.666667 2.133333-12.8 0-25.6 0-42.666667-2.133333l-21.333333-85.333334-2.133333-2.133333c-19.2-4.266667-36.266667-12.8-53.333334-21.333333l-2.133333-2.133334-76.8 46.933334c-23.466667-19.2-42.666667-38.4-59.733333-59.733334l44.8-76.8-2.133334-2.133333c-8.533333-17.066667-17.066667-34.133333-21.333333-53.333333l-2.133333-4.266667-85.333334-21.333333c-2.133333-14.933333-4.266667-29.866667-4.266666-42.666667 0-12.8 2.133333-25.6 4.266666-40.533333l85.333334-21.333334 2.133333-4.266666c4.266667-19.2 12.8-36.266667 21.333333-53.333334l2.133334-2.133333-44.8-76.8c17.066667-23.466667 38.4-42.666667 59.733333-59.733333l74.666667 44.8 2.133333-2.133334c17.066667-8.533333 34.133333-17.066667 53.333333-21.333333h2.133334l21.333333-87.466667c19.2-2.133333 34.133333-2.133333 44.8-2.133333z m0 204.8c-34.133333 0-61.866667 12.8-87.466667 36.266667-23.466667 23.466667-36.266667 53.333333-36.266666 85.333333s12.8 61.866667 36.266666 85.333333 53.333333 36.266667 87.466667 36.266667 61.866667-12.8 87.466667-36.266667c23.466667-23.466667 36.266667-53.333333 36.266666-85.333333s-12.8-61.866667-36.266666-85.333333-53.333333-36.266667-87.466667-36.266667z" p-id="4328" fill="#2c2c2c"></path></svg>