<?xml version="1.0" standalone="no"?><!DOCTYPE svg PUBLIC "-//W3C//DTD SVG 1.1//EN" "http://www.w3.org/Graphics/SVG/1.1/DTD/svg11.dtd"><svg t="1694073466763" class="icon" viewBox="0 0 1024 1024" version="1.1" xmlns="http://www.w3.org/2000/svg" p-id="3925" xmlns:xlink="http://www.w3.org/1999/xlink" width="200" height="200"><path d="M283.733333 426.666667c23.466667 0 42.666667 8.533333 59.733334 25.6 17.066667 17.066667 25.6 36.266667 25.6 59.733333 0 23.466667-8.533333 42.666667-25.6 59.733333-17.066667 17.066667-36.266667 25.6-59.733334 25.6s-42.666667-8.533333-59.733333-25.6c-17.066667-17.066667-25.6-36.266667-25.6-59.733333s8.533333-42.666667 25.6-59.733333c17.066667-17.066667 36.266667-25.6 59.733333-25.6z m228.266667 0c23.466667 0 42.666667 8.533333 59.733333 25.6 17.066667 17.066667 25.6 36.266667 25.6 59.733333 0 23.466667-8.533333 42.666667-25.6 59.733333-17.066667 17.066667-36.266667 25.6-59.733333 25.6s-42.666667-8.533333-59.733333-25.6c-17.066667-17.066667-25.6-36.266667-25.6-59.733333 0-23.466667 8.533333-42.666667 25.6-59.733333 17.066667-17.066667 36.266667-25.6 59.733333-25.6z m228.266667 0c23.466667 0 42.666667 8.533333 59.733333 25.6 17.066667 17.066667 25.6 36.266667 25.6 59.733333 0 23.466667-8.533333 42.666667-25.6 59.733333-17.066667 17.066667-36.266667 25.6-59.733333 25.6s-42.666667-8.533333-59.733334-25.6c-17.066667-17.066667-25.6-36.266667-25.6-59.733333 0-23.466667 8.533333-42.666667 25.6-59.733333 14.933333-17.066667 36.266667-25.6 59.733334-25.6z" p-id="3926" fill="#2c2c2c"></path></svg>