<?xml version="1.0" standalone="no"?><!DOCTYPE svg PUBLIC "-//W3C//DTD SVG 1.1//EN" "http://www.w3.org/Graphics/SVG/1.1/DTD/svg11.dtd"><svg t="1694084337408" class="icon" viewBox="0 0 1024 1024" version="1.1" xmlns="http://www.w3.org/2000/svg" p-id="15959" xmlns:xlink="http://www.w3.org/1999/xlink" width="200" height="200"><path d="M512 183.466667c44.8 0 87.466667 8.533333 128 25.6 40.533333 17.066667 74.666667 40.533333 104.533333 70.4 29.866667 29.866667 53.333333 64 70.4 104.533333 17.066667 40.533333 25.6 83.2 25.6 128s-8.533333 87.466667-25.6 128c-17.066667 40.533333-40.533333 74.666667-70.4 104.533333-29.866667 29.866667-64 53.333333-104.533333 70.4-40.533333 17.066667-83.2 25.6-128 25.6s-87.466667-8.533333-128-25.6c-40.533333-17.066667-74.666667-40.533333-104.533333-70.4-29.866667-29.866667-53.333333-64-70.4-104.533333-17.066667-40.533333-25.6-83.2-25.6-128s8.533333-87.466667 25.6-128c17.066667-40.533333 40.533333-74.666667 70.4-104.533333 29.866667-29.866667 64-53.333333 104.533333-70.4 40.533333-17.066667 83.2-25.6 128-25.6z m0 85.333333c-44.8 0-85.333333 10.666667-121.6 32-38.4 21.333333-66.133333 51.2-87.466667 87.466667-21.333333 38.4-32 78.933333-32 121.6 0 44.8 10.666667 85.333333 32 121.6 21.333333 38.4 51.2 66.133333 87.466667 87.466666 38.4 21.333333 78.933333 32 121.6 32 44.8 0 85.333333-10.666667 121.6-32 38.4-21.333333 66.133333-51.2 87.466667-87.466666 21.333333-38.4 32-78.933333 32-121.6 0-44.8-10.666667-85.333333-32-121.6-21.333333-38.4-51.2-66.133333-87.466667-87.466667-36.266667-21.333333-76.8-32-121.6-32z m89.6 115.2l36.266667 36.266667c2.133333 2.133333 4.266667 6.4 4.266666 10.666666s-2.133333 6.4-4.266666 10.666667l-70.4 70.4 70.4 70.4c2.133333 2.133333 4.266667 6.4 4.266666 10.666667s-2.133333 6.4-4.266666 10.666666l-36.266667 36.266667c-2.133333 2.133333-6.4 4.266667-10.666667 4.266667s-6.4-2.133333-10.666666-4.266667l-70.4-70.4-70.4 70.4c-2.133333 2.133333-6.4 4.266667-10.666667 4.266667s-6.4-2.133333-10.666667-4.266667l-36.266666-36.266667c-2.133333-2.133333-4.266667-6.4-4.266667-10.666666s2.133333-6.4 4.266667-10.666667l70.4-70.4-70.4-70.4c-2.133333-2.133333-4.266667-6.4-4.266667-10.666667s2.133333-6.4 4.266667-10.666666l36.266666-36.266667c2.133333-2.133333 6.4-4.266667 10.666667-4.266667s6.4 2.133333 10.666667 4.266667l70.4 70.4 70.4-70.4c2.133333-2.133333 6.4-4.266667 10.666666-4.266667 6.4 2.133333 8.533333 2.133333 10.666667 4.266667z" p-id="15960" fill="#2c2c2c"></path></svg>